<?xml version="1.0" encoding="utf-8"?>
<!-- Generator: Adobe Illustrator 21.1.0, SVG Export Plug-In . SVG Version: 6.00 Build 0)  -->
<svg version="1.1" id="Layer_1" xmlns="http://www.w3.org/2000/svg" xmlns:xlink="http://www.w3.org/1999/xlink" x="0px" y="0px"
	 viewBox="0 0 690 145" enable-background="new 0 0 690 145" xml:space="preserve">
<g>
	<path fill="#F6F6F5" d="M200.2,10.6v39.4c0,8.7-2.2,11.2-9.2,12v0.8h19.3V0h-14.2C199.1,1.6,200.2,4.6,200.2,10.6z"/>
	<path fill="#F6F6F5" d="M230,0.9c6.5,2.7,9.2,5.3,12.2,15.9h0.8L242.5,0h-15.7C228.1,0.3,229.2,0.6,230,0.9z"/>
	<path fill="#F6F6F5" d="M625.3,10.6v39.4c0,8.7-2.2,11.2-9.2,12v0.8h28.5v-0.8c-7-0.8-9.2-3.3-9.2-12V10.6c0-6,1.1-9.1,4-10.6
		h-18.2C624.2,1.6,625.3,4.6,625.3,10.6z"/>
	<path fill="#F6F6F5" d="M264.1,10.6v39.4c0,8.7-2.2,11.2-9.2,12v0.8h30.6v-0.8c-8.1-0.8-11.3-3.3-11.3-12V0H260
		C263,1.6,264.1,4.6,264.1,10.6z"/>
	<path fill="#F6F6F5" d="M232.4,42.5v-25h-0.8c-1.9,9.5-4.8,11.9-14.7,12.1v0.8c9.9,0.2,12.8,2.6,14.7,12.1H232.4z"/>
	<path fill="#F6F6F5" d="M85.3,10.6v39.4c0,8.7-2.2,11.2-9.2,12v0.8h30.6v-0.8c-8.1-0.8-11.3-3.3-11.3-12V0H81.3
		C84.3,1.6,85.3,4.6,85.3,10.6z"/>
	<path fill="#F6F6F5" d="M117.5,15.5c0,10.2-3.5,14.8-11.4,17.1c-1.2,0.4-3.3,0.8-4.8,0.9v0.9c16.9-0.7,26.4-9.8,26.4-19.2
		c0-7.2-3.3-12.5-12-15.3h-8.5C114.6,2.7,117.5,7.9,117.5,15.5z"/>
	<path fill="#F6F6F5" d="M216.9,62.9h27.5l0.9-22.4h-0.8c-2.5,8.8-5.1,14.5-12.6,18.2c-4,2.2-9.6,3.2-15,3.4V62.9z"/>
	<path fill="#F6F6F5" d="M365.7,63.7v-0.9C359,61.7,352,52,350,41.3H349l1.1,19.1C352.9,61.6,359.1,63.2,365.7,63.7z"/>
	<path fill="#F6F6F5" d="M8.9,10.6v28.7c0,8.9,2.4,16.8,9.4,21c3.9,2.3,9.8,3.4,16.6,3.4c2.8,0,6.5-0.6,7.3-1V62
		c0,0-1.5-0.1-3.1-0.3c-4.8-0.6-9.6-1.9-12.4-3.6c-6-3.7-7.7-9-7.7-17.3V10.6c0-6,1.1-9.1,4-10.6H4.9C7.9,1.6,8.9,4.6,8.9,10.6z"/>
	<path fill="#F6F6F5" d="M143.2,10.6v39.4c0,8.7-2.2,11.2-9.2,12v0.8h30.6v-0.8c-8.1-0.8-11.3-3.3-11.3-12V0h-14.2
		C142.2,1.6,143.2,4.6,143.2,10.6z"/>
	<path fill="#F6F6F5" d="M175.5,15.5c0,10.2-3.5,14.8-11.4,17.1c-1.2,0.4-3.3,0.8-4.8,0.9v0.9c16.9-0.7,26.4-9.8,26.4-19.2
		c0-7.2-3.3-12.5-12-15.3h-8.5C172.6,2.7,175.5,7.9,175.5,15.5z"/>
	<path fill="#F6F6F5" d="M350.6,14c0,10.2,9.8,15.5,18.3,20c9.2,4.9,14.6,8.6,14.6,15.3c0,9-6,12.9-13.3,13.3v0.9
		c8.9-0.6,21.7-4.6,21.7-18.3c0-11.3-8-15.7-17.1-20.8C365,19.3,359,16.3,359,8.8c0-4,1.2-7,3.6-8.8H359
		C354.1,2.8,350.6,7.6,350.6,14z"/>
	<path fill="#F6F6F5" d="M296.3,15c0,7.8-1.2,13.7-9.1,16c-1.4,0.4-2.5,0.5-3.9,0.6v0.5c4.2,7.8,9.1,14.4,13.3,19.8
		c4.2,5.5,8.9,11.6,16.8,11.6c5.1,0,9.5-0.1,12.1-0.4v-0.8c-3.1-0.4-8.2-2.3-10.8-5c-6.7-6.7-15.4-16-21.4-26.5v-0.1
		c7.5-2.2,13.2-7.1,13.2-15.7c0-6.9-3.9-12.3-11.8-15h-8.5C292.5,2.2,296.3,6.9,296.3,15z"/>
	<path fill="#F6F6F5" d="M549.3,16.9h0.9c1.9-7.4,5.6-13.5,10.4-16c0.7-0.4,1.4-0.7,2.1-0.9h-12.4L549.3,16.9z"/>
	<path fill="#F6F6F5" d="M598.1,0.9c4.9,2.5,8.6,8.6,10.4,16h0.9l-1-16.9H596C596.7,0.3,597.4,0.6,598.1,0.9z"/>
	<path fill="#F6F6F5" d="M574.3,50.1c0,8.7-2.2,11.2-9.2,12v0.8h28.5v-0.8c-7-0.8-9.2-3.3-9.2-12V0h-10.1V50.1z"/>
	<rect x="639" y="28.2" fill="#F6F6F5" width="28.1" height="2.3"/>
	<path fill="#F6F6F5" d="M684.9,0h-18.2c3,1.6,4,4.6,4,10.6v39.4c0,8.7-2.2,11.2-9.2,12v0.8H690v-0.8c-7-0.8-9.2-3.3-9.2-12V10.6
		C680.8,4.6,681.9,1.6,684.9,0z"/>
	<path fill="#F6F6F5" d="M527,3.1c2.4,2.8,3.8,12.1,3.8,15.7h1.2c0-3.6,1.3-13.2,3.7-16c1.1-1.2,2.3-2.1,3.7-2.8h-16.9
		C524.3,0.7,525.9,1.7,527,3.1z"/>
	<path fill="#F6F6F5" d="M53.1,3.1c2.4,2.8,3.8,12.1,3.8,15.7h1.2c0-3.6,1.3-13.2,3.7-16C63,1.5,64.2,0.6,65.6,0H48.7
		C50.4,0.7,52,1.7,53.1,3.1z"/>
	<path fill="#F6F6F5" d="M482.8,10.6v28.7c0,8.9,2.4,16.8,9.4,21c3.9,2.3,9.8,3.4,16.6,3.4c2.8,0,6.5-0.6,7.3-1V62
		c0,0-1.5-0.1-3.1-0.3c-4.8-0.6-9.6-1.9-12.4-3.6c-6-3.7-7.7-9-7.7-17.3V10.6c0-6,1.1-9.1,4-10.6h-18.2
		C481.8,1.6,482.8,4.6,482.8,10.6z"/>
	<path fill="#F6F6F5" d="M387.4,14.8h0.9L387.5,0h-8.7C383.4,2.9,385.8,8.4,387.4,14.8z"/>
	<path fill="#F6F6F5" d="M401.3,29.8c0,17.8,11.4,33.6,34.6,33.9v-0.9c-2.6-0.2-5.4-0.9-7.7-2c-10.7-4.8-15.7-17.5-15.7-32.1
		c0-15.8,5.5-24.4,13.2-28.5c0.1-0.1,0.3-0.1,0.4-0.2h-5.2C410.2,4.7,401.3,15,401.3,29.8z"/>
	<path fill="#F6F6F5" d="M460.5,32c0,15.8-5.5,24.4-13.2,28.5c-2.1,1.1-5.2,1.9-6.9,2.2v0.9c15-1,31.3-12.7,31.3-32.7
		c0-13.3-6.3-25.4-19.2-30.9H445C455.6,4.8,460.5,17.4,460.5,32z"/>
	<path fill="#F6F6F5" d="M366,138.9c-2.3-2.8-3.7-9.3-3.7-12.9h-1c0,3.6-1.3,10.3-3.7,13.1c-2.3,2.8-5.7,4-9.6,4.2v0.8h28.7v-0.8
		C372.8,143.1,368.5,141.8,366,138.9z"/>
	<path fill="#F6F6F5" d="M63.9,79.9c7,0.8,9.2,3.3,9.2,12v39.4c0,8.7-2.2,11.2-9.2,12v0.8h19.3V79.1H63.9V79.9z"/>
	<path fill="#F6F6F5" d="M100.6,80.4c-3.5-0.7-7.2-1.1-11-1.2v0.8c3.1,0.2,6.1,0.8,9.2,2c11.3,3.9,20,13.7,20,30.4
		c0,15.1-5.8,23-14.8,27.5c-3.6,1.8-10.4,3.6-14.6,3.6v0.8c6.9,0,13.8-1,19.5-3.3c12.7-5.1,21-15.5,21-29.6
		C130,93.6,117.4,83.8,100.6,80.4z"/>
	<path fill="#F6F6F5" d="M40.9,139.9c-4,2.2-9.6,3.2-15,3.4v0.8h27.5l0.9-22.4h-0.8C51,130.5,48.4,136.2,40.9,139.9z"/>
	<path fill="#F6F6F5" d="M136.2,79.9c7,0.8,9.2,3.3,9.2,12v39.4c0,8.7-2.2,11.2-9.2,12v0.8h28.5v-0.8c-7-0.8-9.2-3.3-9.2-12V91.9
		c0-8.7,2.2-11.2,9.2-12v-0.8h-28.5V79.9z"/>
	<path fill="#F6F6F5" d="M51.2,98.1H52l-0.6-19H25.6v0.8c4.2,0.1,10.8,1.2,13.4,2.3C45.5,84.9,48.2,87.5,51.2,98.1z"/>
	<path fill="#F6F6F5" d="M0,79.9c7,0.8,9.2,3.3,9.2,12v39.4c0,8.7-2.2,11.2-9.2,12v0.8h19.3V79.1H0V79.9z"/>
	<path fill="#F6F6F5" d="M25.9,110.9v0.8c9.9,0.2,12.8,2.6,14.7,12.1h0.8v-25h-0.8C38.7,108.3,35.8,110.7,25.9,110.9z"/>
	<path fill="#F6F6F5" d="M192.4,79.1h-18.9l-1.1,19.1h0.9c1.9-7.4,5.6-13.5,10.4-16c2.9-1.4,5.7-2.2,8.7-2.3V79.1z"/>
	<path fill="#F6F6F5" d="M285.9,110c0-15.8,5.5-24.4,13.2-28.5c2.1-1.1,5.2-1.9,6.9-2.2v-0.9c-15,0.9-31.3,12.7-31.3,32.7
		c0,17.8,11.4,33.6,34.6,33.9v-0.9c-2.6-0.2-5.4-0.9-7.7-2C290.9,137.4,285.9,124.7,285.9,110z"/>
	<path fill="#F6F6F5" d="M207.4,131.4V79.1h-10.1v52.3c0,8.7-2.2,11.2-9.2,12v0.8h28.5v-0.8C209.6,142.5,207.4,140,207.4,131.4z"/>
	<path fill="#F6F6F5" d="M347.7,79.1v0.8c3.4,0.3,6.5,1.5,9,3.4c2.8,2,4.9,4.6,6.2,6.3l44.8,54.8h0.6V129l-40.6-49.9H347.7z"/>
	<path fill="#F6F6F5" d="M426.6,122.6h-0.9l1.1,19.1c2.7,1.2,8.9,2.8,15.5,3.3v-0.9C435.5,143,428.6,133.3,426.6,122.6z"/>
	<path fill="#F6F6F5" d="M451.2,105.9c-9.6-5.3-15.7-8.3-15.7-15.8c0-6.5,3.2-10.2,9.4-10.7v-0.9c-9,0.7-17.8,6.8-17.8,16.9
		c0,10.2,9.8,15.5,18.3,20c9.2,4.9,14.6,8.6,14.6,15.3c0,9-6,12.9-13.3,13.3v0.9c8.9-0.6,21.7-4.6,21.7-18.3
		C468.4,115.4,460.4,110.9,451.2,105.9z"/>
	<path fill="#F6F6F5" d="M392.9,79.9c3.9,0.2,8.2,1.5,10.6,4.4c2.3,2.8,3.7,9.3,3.7,12.9h1c0-3.6,1.3-10.3,3.7-13.1
		c2.3-2.8,5.7-4,9.6-4.2v-0.8h-28.7V79.9z"/>
	<path fill="#F6F6F5" d="M463.9,96.1h0.9L464,80.8c-3.3-1.1-10.4-2.5-14.4-2.5v0.9C458.1,80.4,461.9,87.5,463.9,96.1z"/>
	<path fill="#F6F6F5" d="M212.4,79.1v0.8c3,0.1,5.8,0.8,8.7,2.3c4.9,2.5,8.6,8.6,10.4,16h0.9l-1.1-19.1H212.4z"/>
	<path fill="#F6F6F5" d="M240,79.9c7,0.8,9.2,3.3,9.2,12v39.4c0,8.7-2.2,11.2-9.2,12v0.8h28.5v-0.8c-7-0.8-9.2-3.3-9.2-12V91.9
		c0-8.7,2.2-11.2,9.2-12v-0.8H240V79.9z"/>
	<path fill="#F6F6F5" d="M310.5,78.3v0.9c2.6,0.2,5.4,0.9,7.7,2c10.7,4.8,15.7,17.5,15.7,32.1c0,15.8-5.5,24.4-13.2,28.5
		c-2.1,1.1-5.2,1.9-6.9,2.2v0.9c15-1,31.3-12.7,31.3-32.7C345.1,94.4,333.7,78.6,310.5,78.3z"/>
</g>
</svg>
