<?xml version="1.0" encoding="utf-8"?>
<!-- Generator: Adobe Illustrator 21.1.0, SVG Export Plug-In . SVG Version: 6.00 Build 0)  -->
<svg version="1.1" id="Layer_1" xmlns="http://www.w3.org/2000/svg" xmlns:xlink="http://www.w3.org/1999/xlink" x="0px" y="0px"
	 viewBox="0 0 28 28" style="enable-background:new 0 0 28 28;" xml:space="preserve">
<style type="text/css">
	.st0{fill:#737573;}
</style>
<path class="st0" d="M28,27h-6.2v-9.1c0-2.4-1-4-3.1-4c-1.6,0-2.5,1.1-3,2.2c-0.2,0.4-0.1,0.9-0.1,1.4V27H9.5c0,0,0.1-16.2,0-17.7
	h6.1v2.8c0.4-1.2,2.3-2.9,5.4-2.9c3.9,0,6.9,2.5,6.9,8V27H28z M3.3,7.1L3.3,7.1c-2,0-3.3-1.3-3.3-3C0,2.3,1.3,1,3.3,1
	s3.3,1.3,3.3,3.1C6.6,5.8,5.3,7.1,3.3,7.1 M6.2,27H0.7V9.3h5.5V27z"/>
</svg>
