<?xml version="1.0" encoding="utf-8"?>
<!-- Generator: Adobe Illustrator 21.1.0, SVG Export Plug-In . SVG Version: 6.00 Build 0)  -->
<svg version="1.1" id="Layer_1" xmlns="http://www.w3.org/2000/svg" xmlns:xlink="http://www.w3.org/1999/xlink" x="0px" y="0px"
	 viewBox="0 0 28 28" style="enable-background:new 0 0 28 28;" xml:space="preserve">
<style type="text/css">
	.st0{fill:#737573;}
</style>
<path class="st0" d="M28,5.6c-1,0.4-2.1,0.7-3.3,0.9c1.2-0.7,2.1-1.8,2.5-3.1c-1.1,0.6-2.3,1.1-3.6,1.3C22.5,3.7,21,3,19.4,3
	c-3.2,0-5.7,2.5-5.7,5.6c0,0.4,0,0.9,0.1,1.3C9,9.6,4.8,7.4,1.9,4C1.5,4.8,1.2,5.8,1.2,6.8c0,1.9,1,3.6,2.6,4.6
	c-0.9,0-1.8-0.3-2.6-0.7v0.1c0,2.7,2,4.9,4.6,5.4c-0.5,0.1-1,0.2-1.5,0.2c-0.4,0-0.7,0-1.1-0.1c0.7,2.2,2.9,3.8,5.4,3.9
	c-2,1.5-4.4,2.4-7.1,2.4c-0.5,0-0.9,0-1.4-0.1C2.5,24.1,5.6,25,8.8,25c10.6,0,16.3-8.5,16.3-15.8c0-0.2,0-0.5,0-0.7
	C26.3,7.7,27.2,6.7,28,5.6"/>
</svg>
