<?xml version="1.0" encoding="utf-8"?>
<!-- Generator: Adobe Illustrator 21.1.0, SVG Export Plug-In . SVG Version: 6.00 Build 0)  -->
<svg version="1.1" id="Layer_1" xmlns="http://www.w3.org/2000/svg" xmlns:xlink="http://www.w3.org/1999/xlink" x="0px" y="0px"
	 viewBox="0 0 570 142" enable-background="new 0 0 570 142" xml:space="preserve">
<path fill="#E0E1DF" d="M280.9,127.9l-20-52.4h-1.3L255,87.3l9.4,25.8h-19.3l-0.8,2.3h20.9l4,10.9c1.3,3.4,2.2,6,2.2,8.1
	c0,3.9-2.4,5.6-7.9,5.9v0.8h30.3v-0.8C288.5,139.6,284.4,136.5,280.9,127.9z"/>
<path fill="#E0E1DF" d="M191.2,136.9c-4,2.2-9.6,3.2-15,3.4v0.8h27.4l0.9-22.4h-0.8C201.3,127.6,198.7,133.2,191.2,136.9z"/>
<path fill="#E0E1DF" d="M240.6,132.7c0-2.9,0.8-6.7,1-7.6l-0.8-0.4c-1.8,4.3-3.6,8.1-7,11.3c-2.7,2.6-5.2,3.7-8.9,4.3v0.8h24.3v-0.8
	C244.3,140,240.6,137.8,240.6,132.7z"/>
<path fill="#E0E1DF" d="M393.8,128.4V76.2h-10.1v52.2c0,8.7-2.2,11.1-9.2,12v0.8H403v-0.8C396,139.5,393.8,137.1,393.8,128.4z"/>
<path fill="#E0E1DF" d="M378.8,76.2h-18.9l-1.1,19.1h0.9c1.9-7.4,5.6-13.5,10.4-16c2.9-1.4,5.7-2.2,8.7-2.3V76.2z"/>
<path fill="#E0E1DF" d="M176.2,108v0.8c9.9,0.2,12.8,2.6,14.6,12.1h0.8v-25h-0.8C189,105.4,186.1,107.8,176.2,108z"/>
<path fill="#E0E1DF" d="M315.3,128.4V76.2h-19.3V77c7,0.8,9.2,3.3,9.2,12v39.4c0,8.7-2.2,11.1-9.2,12v0.8h30.5v-0.8
	C318.5,139.5,315.3,137.1,315.3,128.4z"/>
<path fill="#E0E1DF" d="M334.4,109.1V109c7.5-2.2,13.2-7.1,13.2-15.7s-5.9-14.6-17.9-16.4c-1.9-0.3-7.2-0.7-8.4-0.7V77
	c9.9,1.1,16.1,6,16.1,16.3c0,7.8-1.2,13.7-9.1,16c-1.4,0.4-2.5,0.5-3.9,0.6v0.5c4.2,7.8,9.1,14.3,13.3,19.8
	c4.2,5.5,8.9,11.5,16.8,11.5c5.1,0,9.5-0.1,12.1-0.4v-0.8c-3.1-0.4-8.1-2.3-10.8-4.9C349.1,128.9,340.4,119.6,334.4,109.1z"/>
<path fill="#E0E1DF" d="M201.5,95.2h0.8l-0.6-19h-25.8V77c4.2,0.1,10.8,1.2,13.4,2.3C195.8,82,198.5,84.6,201.5,95.2z"/>
<path fill="#E0E1DF" d="M21.6,76.2H2.8L1.6,95.3h0.9c1.9-7.4,5.6-13.5,10.4-16c2.9-1.4,5.7-2.2,8.7-2.3V76.2z"/>
<path fill="#E0E1DF" d="M36.7,128.4V76.2H26.6v52.2c0,8.7-2.2,11.1-9.2,12v0.8h28.5v-0.8C38.9,139.5,36.7,137.1,36.7,128.4z"/>
<path fill="#E0E1DF" d="M498.8,93.1h0.9l-0.8-15.3c-3.3-1.1-10.4-2.5-14.3-2.5v0.9C492.9,77.4,496.7,84.6,498.8,93.1z"/>
<path fill="#E0E1DF" d="M41.6,76.2V77c3,0.1,5.8,0.8,8.7,2.3c4.8,2.5,8.6,8.6,10.4,16h0.9l-1.1-19.1H41.6z"/>
<path fill="#E0E1DF" d="M398.8,76.2V77c3,0.1,5.8,0.8,8.7,2.3c4.8,2.5,8.6,8.6,10.4,16h0.9l-1.1-19.1H398.8z"/>
<rect x="91.1" y="106.5" fill="#E0E1DF" width="28" height="2.3"/>
<path fill="#E0E1DF" d="M150.3,77c7,0.8,9.2,3.3,9.2,12v39.4c0,8.7-2.2,11.1-9.2,12v0.8h19.3v-65h-19.3V77z"/>
<path fill="#E0E1DF" d="M113.6,77c7,0.8,9.2,3.3,9.2,12v39.4c0,8.7-2.2,11.1-9.2,12v0.8h28.5v-0.8c-7-0.8-9.2-3.3-9.2-12V89
	c0-8.7,2.2-11.1,9.2-12v-0.8h-28.5V77z"/>
<path fill="#E0E1DF" d="M87.5,128.4V89c0-8.7,2.2-11.1,9.2-12v-0.8H68.2V77c7,0.8,9.2,3.3,9.2,12v39.4c0,8.7-2.2,11.1-9.2,12v0.8
	h28.5v-0.8C89.7,139.5,87.5,137.1,87.5,128.4z"/>
<path fill="#E0E1DF" d="M530,76.2h-18.9L510,95.3h0.9c1.9-7.4,5.6-13.5,10.4-16c2.9-1.4,5.7-2.2,8.7-2.3V76.2z"/>
<path fill="#E0E1DF" d="M545,128.4V76.2h-10.1v52.2c0,8.7-2.2,11.1-9.2,12v0.8h28.5v-0.8C547.2,139.5,545,137.1,545,128.4z"/>
<path fill="#E0E1DF" d="M568.9,76.2H550V77c3,0.1,5.8,0.8,8.7,2.3c4.8,2.5,8.6,8.6,10.4,16h0.9L568.9,76.2z"/>
<path fill="#E0E1DF" d="M425.4,77c7,0.8,9.2,3.3,9.2,12v39.4c0,8.7-2.2,11.1-9.2,12v0.8h28.5v-0.8c-7-0.8-9.2-3.3-9.2-12V89
	c0-8.7,2.2-11.1,9.2-12v-0.8h-28.5V77z"/>
<path fill="#E0E1DF" d="M461.4,119.6h-0.9l1.1,19.1c2.7,1.2,8.9,2.8,15.5,3.3v-0.9C470.4,140,463.5,130.3,461.4,119.6z"/>
<path fill="#E0E1DF" d="M486.1,102.9c-9.6-5.3-15.7-8.2-15.7-15.8c0-6.5,3.2-10.2,9.4-10.7v-0.9c-9,0.7-17.7,6.8-17.7,16.9
	c0,10.2,9.8,15.5,18.3,20c9.2,4.8,14.5,8.6,14.5,15.3c0,9-6,12.9-13.3,13.3v0.9c8.9-0.6,21.7-4.6,21.7-18.3
	C503.2,112.4,495.3,108,486.1,102.9z"/>
<path fill="#E0E1DF" d="M81.3,9.5v39.4c0,8.7-2.2,11.1-9.2,12v0.8h19.3V0H78.8C80.6,1.8,81.3,4.7,81.3,9.5z"/>
<path fill="#E0E1DF" d="M30.1,7.9l9.4,25.8H20.2l-0.8,2.3h20.9l4,10.9c1.3,3.4,2.2,6,2.2,8.1c0,3.9-2.4,5.6-7.9,5.9v0.8h30.3v-0.8
	c-5.4-0.7-9.4-3.8-12.9-12.5L37.5,0h-4.4L30.1,7.9z"/>
<path fill="#E0E1DF" d="M24.3,60.9c-4.9-0.3-8.7-2.6-8.7-7.6c0-2.9,0.8-6.7,1-7.6l-0.8-0.4c-1.8,4.3-3.6,8.1-7,11.3
	c-2.7,2.6-5.2,3.7-8.9,4.3v0.8h24.3V60.9z"/>
<path fill="#E0E1DF" d="M307.7,48.9c0,8.7-2.2,11.1-9.2,12v0.8H327v-0.8c-7-0.8-9.2-3.3-9.2-12V0h-10.1V48.9z"/>
<path fill="#E0E1DF" d="M133.9,28.7c0,17.7,11.3,33.5,34.5,33.8v-0.9c-2.6-0.2-5.4-0.9-7.7-2C150,54.9,145,42.2,145,27.6
	c0-14.7,4.8-23.1,11.7-27.6h-5.5C141.6,5.1,133.9,15,133.9,28.7z"/>
<path fill="#E0E1DF" d="M216.3,9.5v28.7c0,8.9,2.4,16.8,9.4,20.9c3.9,2.3,9.8,3.4,16.6,3.4c2.8,0,6.5-0.6,7.3-1v-0.7
	c0,0-1.5-0.1-3.1-0.3c-4.7-0.6-9.6-1.9-12.4-3.6c-6-3.7-7.7-9-7.7-17.3v-30c0-4.8,0.7-7.7,2.5-9.5h-15.1
	C215.6,1.8,216.3,4.7,216.3,9.5z"/>
<path fill="#E0E1DF" d="M193,30.9c0,15.8-5.5,24.3-13.2,28.5c-2.1,1.1-5.2,1.9-6.9,2.2v0.9c15-1,31.2-12.7,31.2-32.7
	c0-12.4-5.6-23.9-16.9-29.7h-7.7C188.7,5.5,193,17.3,193,30.9z"/>
<path fill="#E0E1DF" d="M109.8,12.3c0,6.1-3.5,12.3-9.2,14.1c-1.2,0.4-3,0.6-3.9,0.6v0.7c2,0,4.9,0.3,6.6,0.9
	c6.6,2.4,10.9,8.1,10.9,15.8c0,8.9-3.2,15.4-16.5,16.4v0.8c1.1,0,3.9,0,5.6-0.2c11.5-1,21.3-5.7,21.3-17c0-11.4-10.2-15.8-21-17.1
	v-0.2c8.5-1.6,16.1-7.3,16.1-15.1c0-6-3.1-9.8-7.2-12.1h-7.2C108.1,2.2,109.8,5.9,109.8,12.3z"/>
<path fill="#E0E1DF" d="M341.9,15.8h0.9L341.9,0h-10.1C336.5,2.6,340.1,8.5,341.9,15.8z"/>
<path fill="#E0E1DF" d="M282.8,15.8h0.9c1.8-7.3,5.4-13.2,10.1-15.8h-10.1L282.8,15.8z"/>
<path fill="#E0E1DF" d="M260.4,2c2.4,2.8,3.8,12.1,3.8,15.7h1.2c0-3.6,1.3-13.2,3.7-16c0.6-0.6,1.2-1.2,1.8-1.7h-12.9
	C259,0.6,259.8,1.2,260.4,2z"/>
</svg>
